<?xml version="1.0" encoding="iso-8859-1"?>
<!-- Generator: Adobe Illustrator 19.0.0, SVG Export Plug-In . SVG Version: 6.00 Build 0)  -->
<svg version="1.1" id="Capa_1" xmlns="http://www.w3.org/2000/svg" xmlns:xlink="http://www.w3.org/1999/xlink" x="0px" y="0px"
	 viewBox="0 0 512 512" style="enable-background:new 0 0 512 512;" xml:space="preserve">
<path style="fill:#80C7EA;" d="M298.103,299.739V42.102C298.103,18.85,279.253,0,256,0l0,0c-23.252,0-42.102,18.85-42.102,42.102
	v257.637c-40.617,16.79-69.022,57.133-68.174,104.009c1.071,59.214,49.464,107.404,108.682,108.24
	c61.645,0.871,111.889-48.839,111.889-110.284C366.296,355.702,338.129,316.284,298.103,299.739z"/>
<path style="fill:#2C9CCC;" d="M275.009,495.506c-59.218-0.837-107.611-49.025-108.682-108.24
	c-0.559-30.9,11.598-58.957,31.58-79.305c-31.868,19.788-52.915,55.351-52.184,95.788c1.071,59.214,49.464,107.404,108.682,108.24
	c31.432,0.444,59.895-12.267,80.249-32.974C317.374,489.734,296.913,495.816,275.009,495.506z"/>
<path style="fill:#2788B3;" d="M256,374.587l-58.318,29.159c0,32.204,26.113,58.318,58.318,58.318s58.318-26.113,58.318-58.318
	L256,374.587z"/>
<path style="fill:#EEEEEC;" d="M268.878,346.873V53.731c0-7.112-5.766-12.877-12.877-12.877c-7.111,0-12.877,5.765-12.877,12.877
	v293.142c-26.007,5.866-45.44,29.094-45.44,56.873h116.636C314.318,375.968,294.885,352.739,268.878,346.873z"/>
<g>
</g>
<g>
</g>
<g>
</g>
<g>
</g>
<g>
</g>
<g>
</g>
<g>
</g>
<g>
</g>
<g>
</g>
<g>
</g>
<g>
</g>
<g>
</g>
<g>
</g>
<g>
</g>
<g>
</g>
</svg>
